<svg xmlns="http://www.w3.org/2000/svg" viewBox="0 0 512 512"><title>Gym</title><g id="Gym"><g id="Gym-2" data-name="Gym"><path d="M441.3235,118.1263h-79.55a9.4471,9.4471,0,0,0-9.45,9.45v56.4885h-2.7306v-14.31a9.4511,9.4511,0,0,0-9.45-9.45H206.4a9.4488,9.4488,0,0,0-9.45,9.45v14.31H159.6694V127.5763a9.4511,9.4511,0,0,0-9.45-9.45H70.6729a9.4488,9.4488,0,0,0-9.45,9.45v179.83a9.4488,9.4488,0,0,0,9.45,9.45h79.55a9.4511,9.4511,0,0,0,9.45-9.45V250.9177h2.9448v29.1a9.49,9.49,0,0,0,.2052,1.953c.0252.1071.0693.2079.0972.3213a9.8482,9.8482,0,0,0,.4914,1.5084c.0729.1674.1764.315.2583.4725a9.4694,9.4694,0,0,0,.6777,1.1754c.1287.1791.2835.3366.4221.51a9.3856,9.3856,0,0,0,.8379.9261c.0531.05.0882.11.1449.16l40.3137,36.2187v61.16a9.4488,9.4488,0,0,0,9.45,9.45H314.59a9.4511,9.4511,0,0,0,9.45-9.45V323.9122l24.9858-68.78c.0468-.126.05-.2619.0882-.3906a9.1619,9.1619,0,0,0,.3465-1.4967c.0342-.2421.0567-.4788.072-.7209.0126-.2079.063-.4068.063-.621v-.9855h2.7315v56.4885a9.4471,9.4471,0,0,0,9.45,9.45h79.55a9.4511,9.4511,0,0,0,9.45-9.45v-179.83A9.4565,9.4565,0,0,0,441.3235,118.1263ZM330.6928,242.4505H307.0012V179.2048h23.6916ZM259.56,179.2048h28.5417v63.2457H259.56Zm-18.9036,0V214.34H215.85V179.2048Zm-59.1408,91.359V233.24h56.9106v37.3239Zm124.1883,48.4533a9.477,9.477,0,0,0-.567,3.2256v52.7247H224.9626V319.0459a9.4431,9.4431,0,0,0-3.1338-7.0281l-25.1028-22.55h51.15a9.4517,9.4517,0,0,0,9.45-9.45V261.3532h69.3252Z"/></g></g></svg>